<?xml version="1.0" encoding="UTF-8"?>
<svg width="26px" height="52px" viewBox="0 0 26 52" version="1.1" xmlns="http://www.w3.org/2000/svg" xmlns:xlink="http://www.w3.org/1999/xlink">
    <!-- Generator: Sketch 39.1 (31720) - http://www.bohemiancoding.com/sketch -->
    <title>measure</title>
    <desc>Created with Sketch.</desc>
    <defs></defs>
    <g id="Page-1" stroke="none" stroke-width="1" fill="none" fill-rule="evenodd">
        <g id="ruler-link" transform="translate(2.000000, 2.000000)" fill="#000000">
            <g id="ruler">
                <path d="M15.7552083,0.0859375 L15.125,0.744791667 L0.744791667,15.125 L0.0859375,15.7552083 L0.744791667,16.4140625 L5.5859375,21.2552083 L6.24479167,21.9140625 L6.875,21.2552083 L21.2552083,6.90364583 L21.9140625,6.24479167 L21.2552083,5.5859375 L16.4140625,0.744791667 L15.7552083,0.0859375 L15.7552083,0.0859375 Z M15.7552083,2.6640625 L19.3359375,6.24479167 L6.24479167,19.3359375 L2.6640625,15.7552083 L4.44010417,13.9791667 L6.73177083,16.2708333 L8.02083333,14.9817708 L5.72916667,12.6901042 L7.19010417,11.2291667 L8.47916667,12.5182292 L9.76822917,11.2291667 L8.47916667,9.94010417 L9.94010417,8.47916667 L12.2317708,10.7708333 L13.5208333,9.48177083 L11.2291667,7.19010417 L12.6901042,5.72916667 L13.9791667,7.01822917 L15.2682292,5.72916667 L13.9791667,4.44010417 L15.7552083,2.6640625 L15.7552083,2.6640625 Z" id="Shape"></path>
            </g>
        </g>
        <g id="ruler-link" transform="translate(2.000000, 28.000000)" fill="#3388FF">
            <g id="ruler">
                <path d="M15.7552083,0.0859375 L15.125,0.744791667 L0.744791667,15.125 L0.0859375,15.7552083 L0.744791667,16.4140625 L5.5859375,21.2552083 L6.24479167,21.9140625 L6.875,21.2552083 L21.2552083,6.90364583 L21.9140625,6.24479167 L21.2552083,5.5859375 L16.4140625,0.744791667 L15.7552083,0.0859375 L15.7552083,0.0859375 Z M15.7552083,2.6640625 L19.3359375,6.24479167 L6.24479167,19.3359375 L2.6640625,15.7552083 L4.44010417,13.9791667 L6.73177083,16.2708333 L8.02083333,14.9817708 L5.72916667,12.6901042 L7.19010417,11.2291667 L8.47916667,12.5182292 L9.76822917,11.2291667 L8.47916667,9.94010417 L9.94010417,8.47916667 L12.2317708,10.7708333 L13.5208333,9.48177083 L11.2291667,7.19010417 L12.6901042,5.72916667 L13.9791667,7.01822917 L15.2682292,5.72916667 L13.9791667,4.44010417 L15.7552083,2.6640625 L15.7552083,2.6640625 Z" id="Shape"></path>
            </g>
        </g>
    </g>
</svg>